Coordinates
version=1
nRows=6
nColumns=63
inDegrees=yes

Units are S.I. units (second, meters, Newtons, ...)
If the header above contains a line with 'inDegrees', this indicates whether rotational values are in degrees (yes) or radians (no).

endheader
time	pelvis_tilt	pelvis_list	pelvis_rotation	pelvis_tx	pelvis_ty	pelvis_tz	hip_flexion_r	hip_adduction_r	hip_rotation_r	knee_angle_r	knee_angle_r_beta	ankle_angle_r	subtalar_angle_r	mtp_angle_r	hip_flexion_l	hip_adduction_l	hip_rotation_l	knee_angle_l	knee_angle_l_beta	ankle_angle_l	subtalar_angle_l	mtp_angle_l	L5_S1_Flex_Ext	L5_S1_Lat_Bending	L5_S1_axial_rotation	L4_L5_Flex_Ext	L4_L5_Lat_Bending	L4_L5_axial_rotation	L3_L4_Flex_Ext	L3_L4_Lat_Bending	L3_L4_axial_rotation	L2_L3_Flex_Ext	L2_L3_Lat_Bending	L2_L3_axial_rotation	L1_L2_Flex_Ext	L1_L2_Lat_Bending	L1_L2_axial_rotation	L1_T12_Flex_Ext	L1_T12_Lat_Bending	L1_T12_axial_rotation	Abs_r3	Abs_r2	Abs_r1	Abs_t1	Abs_t2	neck_flexion	neck_bending	neck_rotation	arm_flex_r	arm_add_r	arm_rot_r	elbow_flex_r	pro_sup_r	wrist_flex_r	wrist_dev_r	arm_flex_l	arm_add_l	arm_rot_l	elbow_flex_l	pro_sup_l	wrist_flex_l	wrist_dev_l
1.152542	5.700743	-3.228983	99.158499	0.112975	0.589653	0.843330	8.802857	-1.129665	-17.482745	11.034449	0.192587	28.968709	16.435461	0.000000	8.396757	0.690430	16.539026	2.392646	0.041760	25.465018	-14.029575	0.000000	-0.199114	0.564220	-0.482291	-0.369774	0.750413	-0.512435	-0.327124	1.371845	-0.512435	-0.227567	1.371845	-0.422005	-0.184897	1.150558	-0.391862	-0.113774	0.873977	-0.361719	-1.422250	6.382573	-2.682360	0.000000	0.000000	14.583446	-6.244770	8.290735	20.092164	-15.431798	131.988935	10.467831	7.350170	-5.723128	-5.677364	11.931385	-11.345711	57.397864	28.756817	88.523983	-28.586698	-5.945408
1.169492	5.824136	-3.376856	99.476724	0.112064	0.588595	0.843333	9.342531	-1.241033	-17.846085	11.779544	0.205592	29.527826	16.500949	0.000000	8.819123	0.742544	16.801157	2.820959	0.049235	25.866465	-14.104056	0.000000	-0.216431	0.597078	-0.524444	-0.401934	0.794114	-0.557222	-0.355575	1.451735	-0.557222	-0.247359	1.451735	-0.458889	-0.200978	1.217561	-0.426111	-0.123669	0.924874	-0.393333	-1.545947	6.754264	-2.916801	0.000000	0.000000	13.898044	-6.125229	8.757053	19.896344	-15.182483	136.479681	9.242763	7.261337	-5.887497	-5.673871	12.100212	-10.981514	57.115085	28.502938	88.440391	-28.063526	-6.418982
1.186441	5.921064	-3.539960	99.822762	0.111148	0.587424	0.843291	9.911071	-1.393353	-18.168625	12.554874	0.219124	30.175305	16.511532	0.000000	9.317188	0.844771	17.037582	3.375706	0.058917	26.346761	-14.159156	0.000000	-0.234520	0.624056	-0.564789	-0.435527	0.829994	-0.600088	-0.385293	1.517330	-0.600088	-0.268033	1.517330	-0.494190	-0.217775	1.272575	-0.458891	-0.134005	0.966663	-0.423592	-1.675153	7.059446	-3.141187	0.000000	0.000000	13.288864	-5.950691	9.148752	19.675728	-14.887774	140.846121	8.003751	6.987407	-5.934739	-5.768265	12.249393	-10.578572	56.684558	28.209112	88.348102	-27.613677	-6.929945
1.203390	5.992814	-3.704293	100.185922	0.110262	0.586138	0.843261	10.500030	-1.570152	-18.405407	13.364393	0.233253	30.888972	16.395499	0.000000	9.905707	0.993632	17.224048	4.110724	0.071746	26.927805	-14.187045	0.000000	-0.256558	0.645586	-0.600048	-0.476454	0.858630	-0.637551	-0.421499	1.569678	-0.637551	-0.293220	1.569678	-0.525042	-0.238240	1.316479	-0.487539	-0.146597	1.000013	-0.450036	-1.832568	7.303000	-3.337289	0.000000	0.000000	12.795072	-5.753428	9.452475	19.429680	-14.561686	144.678004	6.798847	6.529263	-5.805934	-5.955051	12.440326	-10.142153	56.275240	27.851080	88.239536	-27.233110	-7.412268
1.220339	6.040669	-3.860274	100.579567	0.109319	0.584737	0.843148	11.058057	-1.769793	-18.583658	14.153354	0.247023	31.650242	16.196844	0.000000	10.561423	1.192990	17.392423	5.014959	0.087528	27.601685	-14.210168	0.000000	-0.280905	0.662928	-0.643910	-0.521668	0.881695	-0.684154	-0.461498	1.611844	-0.684154	-0.321046	1.611844	-0.563421	-0.260848	1.351844	-0.523177	-0.160509	1.026876	-0.482932	-2.006474	7.499178	-3.581233	0.000000	0.000000	12.393888	-5.504503	9.723399	19.198416	-14.201853	148.060073	5.643745	6.001182	-5.501294	-6.218425	12.602494	-9.681902	55.651135	27.452538	88.161773	-26.855352	-7.904149
1.237288	6.039648	-3.983027	100.933883	0.108422	0.583289	0.842969	11.592321	-2.007164	-18.698404	14.984250	0.261524	32.465095	15.973249	0.000000	11.235263	1.444373	17.451616	6.056607	0.105708	28.372236	-14.176927	0.000000	-0.311319	0.673191	-0.671308	-0.578151	0.895344	-0.713265	-0.511467	1.636797	-0.713265	-0.355807	1.636797	-0.587395	-0.289091	1.372771	-0.545438	-0.177888	1.042773	-0.503481	-2.223723	7.615272	-3.733615	0.000000	0.000000	12.084436	-5.322646	9.792590	18.920174	-13.866482	150.394171	4.613512	5.359840	-5.032514	-6.498096	12.914128	-9.183221	55.448136	26.913376	88.027598	-26.572750	-8.179912
